<mxfile host="app.diagrams.net" modified="2024-05-17T20:35:34.841Z" agent="Mozilla/5.0 (Windows NT 10.0; Win64; x64) AppleWebKit/537.36 (KHTML, like Gecko) Chrome/124.0.0.0 Safari/537.36 Edg/124.0.0.0" etag="Nxt9iHnTFk2Spxdv-D7W" version="24.4.0" type="device">
  <diagram id="C5RBs43oDa-KdzZeNtuy" name="Page-1">
    <mxGraphModel dx="3122" dy="1662" grid="1" gridSize="10" guides="1" tooltips="1" connect="1" arrows="1" fold="1" page="1" pageScale="1" pageWidth="827" pageHeight="1169" math="0" shadow="0">
      <root>
        <mxCell id="WIyWlLk6GJQsqaUBKTNV-0" />
        <mxCell id="WIyWlLk6GJQsqaUBKTNV-1" parent="WIyWlLk6GJQsqaUBKTNV-0" />
        <mxCell id="Ks0WujP10DtmYbI-6dyg-0" value="Domain" style="swimlane;whiteSpace=wrap;html=1;" vertex="1" parent="WIyWlLk6GJQsqaUBKTNV-1">
          <mxGeometry x="70" y="20" width="1180" height="640" as="geometry" />
        </mxCell>
        <mxCell id="Ks0WujP10DtmYbI-6dyg-72" value="&lt;p style=&quot;margin:0px;margin-top:4px;text-align:center;&quot;&gt;Category :&amp;nbsp;&lt;span style=&quot;background-color: initial;&quot;&gt;BaseEntity&lt;/span&gt;&lt;br&gt;&lt;/p&gt;&lt;hr size=&quot;1&quot; style=&quot;border-style:solid;&quot;&gt;&lt;p style=&quot;margin:0px;margin-left:4px;&quot;&gt;+string&amp;nbsp;&lt;span style=&quot;background-color: initial;&quot;&gt;CategoryName&lt;/span&gt;&lt;/p&gt;&lt;hr size=&quot;1&quot; style=&quot;border-style:solid;&quot;&gt;&lt;p style=&quot;margin:0px;margin-left:4px;&quot;&gt;+&amp;nbsp;&lt;span style=&quot;background-color: initial;&quot;&gt;public Category(Guid id, string categoryName)&lt;/span&gt;&lt;/p&gt;&lt;p style=&quot;margin: 0px 0px 0px 4px;&quot;&gt;&lt;span style=&quot;background-color: initial;&quot;&gt;+&amp;nbsp;&lt;/span&gt;&lt;span style=&quot;background-color: initial;&quot;&gt;public Category() {}&lt;/span&gt;&lt;/p&gt;" style="verticalAlign=top;align=left;overflow=fill;html=1;whiteSpace=wrap;connectable=1;imageWidth=20;" vertex="1" parent="Ks0WujP10DtmYbI-6dyg-0">
          <mxGeometry x="290" y="40" width="280" height="90" as="geometry" />
        </mxCell>
        <mxCell id="Ks0WujP10DtmYbI-6dyg-73" value="&lt;p style=&quot;margin:0px;margin-top:4px;text-align:center;&quot;&gt;BaseEntity&lt;br&gt;&lt;/p&gt;&lt;hr size=&quot;1&quot; style=&quot;border-style:solid;&quot;&gt;&lt;p style=&quot;margin:0px;margin-left:4px;&quot;&gt;+&amp;nbsp;&lt;span style=&quot;font-size: 10px; background-color: initial;&quot;&gt;Guid&amp;nbsp;&lt;/span&gt;&lt;span style=&quot;background-color: initial; font-size: 10px;&quot;&gt;Id&amp;nbsp;&lt;/span&gt;&lt;/p&gt;&lt;hr size=&quot;1&quot; style=&quot;border-style:solid;&quot;&gt;&lt;p style=&quot;margin:0px;margin-left:4px;&quot;&gt;+&amp;nbsp;&lt;span style=&quot;background-color: initial;&quot;&gt;SetId(Guid Id)&lt;/span&gt;&lt;span style=&quot;background-color: initial; color: rgba(0, 0, 0, 0); font-family: monospace; font-size: 0px; text-wrap: nowrap;&quot;&gt;%3CmxGraphModel%3E%3Croot%3E%3CmxCell%20id%3D%220%22%2F%3E%3CmxCell%20id%3D%221%22%20parent%3D%220%22%2F%3E%3CmxCell%20id%3D%222%22%20value%3D%22SetId(Guid%20Id)%22%20style%3D%22text%3BstrokeColor%3Dnone%3BfillColor%3Dnone%3Balign%3Dleft%3BverticalAlign%3Dmiddle%3BspacingLeft%3D4%3BspacingRight%3D4%3Boverflow%3Dhidden%3Bpoints%3D%5B%5B0%2C0.5%5D%2C%5B1%2C0.5%5D%5D%3BportConstraint%3Deastwest%3Brotatable%3D0%3BwhiteSpace%3Dwrap%3Bhtml%3D1%3B%22%20vertex%3D%221%22%20parent%3D%221%22%3E%3CmxGeometry%20x%3D%2240%22%20y%3D%22110%22%20width%3D%22230%22%20height%3D%2220%22%20as%3D%22geometry%22%2F%3E%3C%2FmxCell%3E%3C%2Froot%3E%3C%2FmxGraphModel%3E&lt;/span&gt;&lt;/p&gt;&lt;p style=&quot;margin: 0px 0px 0px 4px;&quot;&gt;&lt;span style=&quot;background-color: initial;&quot;&gt;+&amp;nbsp;&lt;/span&gt;&lt;span style=&quot;background-color: initial;&quot;&gt;public override bool Equals(object? obj)&lt;/span&gt;&lt;/p&gt;&lt;p style=&quot;margin: 0px 0px 0px 4px;&quot;&gt;&lt;span style=&quot;background-color: initial;&quot;&gt;+&lt;/span&gt;&lt;span style=&quot;background-color: initial;&quot;&gt;&amp;nbsp;public override int GetHashCode()&lt;/span&gt;&lt;/p&gt;" style="verticalAlign=top;align=left;overflow=fill;html=1;whiteSpace=wrap;connectable=1;imageWidth=20;" vertex="1" parent="Ks0WujP10DtmYbI-6dyg-0">
          <mxGeometry x="35" y="30" width="230" height="110" as="geometry" />
        </mxCell>
        <mxCell id="Ks0WujP10DtmYbI-6dyg-74" value="&lt;p style=&quot;margin:0px;margin-top:4px;text-align:center;&quot;&gt;ItemOrder :&amp;nbsp;&lt;span style=&quot;background-color: initial;&quot;&gt;BaseEntity&lt;/span&gt;&lt;br&gt;&lt;/p&gt;&lt;hr size=&quot;1&quot; style=&quot;border-style:solid;&quot;&gt;&lt;p style=&quot;margin:0px;margin-left:4px;&quot;&gt;+&amp;nbsp;&lt;span style=&quot;background-color: initial;&quot;&gt;Guid OrderId&lt;/span&gt;&lt;/p&gt;&lt;p style=&quot;margin:0px;margin-left:4px;&quot;&gt;&lt;span style=&quot;background-color: initial;&quot;&gt;+&amp;nbsp;&lt;/span&gt;&lt;span style=&quot;background-color: initial;&quot;&gt;Order order&lt;/span&gt;&lt;/p&gt;&lt;p style=&quot;margin:0px;margin-left:4px;&quot;&gt;&lt;span style=&quot;background-color: initial;&quot;&gt;+&amp;nbsp;&lt;/span&gt;&lt;span style=&quot;background-color: initial;&quot;&gt;Guid ProductId&lt;/span&gt;&lt;/p&gt;&lt;p style=&quot;margin:0px;margin-left:4px;&quot;&gt;&lt;span style=&quot;background-color: initial;&quot;&gt;+&amp;nbsp;&lt;/span&gt;&lt;span style=&quot;background-color: initial;&quot;&gt;Product Product&lt;/span&gt;&lt;/p&gt;&lt;p style=&quot;margin:0px;margin-left:4px;&quot;&gt;&lt;span style=&quot;background-color: initial;&quot;&gt;+ int Quantity&lt;/span&gt;&lt;/p&gt;&lt;p style=&quot;margin:0px;margin-left:4px;&quot;&gt;&lt;span style=&quot;background-color: initial;&quot;&gt;+ double Price&lt;/span&gt;&lt;span style=&quot;background-color: initial;&quot;&gt;&lt;br&gt;&lt;/span&gt;&lt;/p&gt;&lt;hr size=&quot;1&quot; style=&quot;border-style:solid;&quot;&gt;&lt;p style=&quot;margin:0px;margin-left:4px;&quot;&gt;+&amp;nbsp;&lt;span style=&quot;background-color: initial;&quot;&gt;&amp;nbsp;public ItemOrder(int quantity, Guid productId)&lt;/span&gt;&lt;/p&gt;&lt;p style=&quot;margin: 0px 0px 0px 4px;&quot;&gt;&lt;span style=&quot;background-color: initial;&quot;&gt;+&amp;nbsp;&lt;/span&gt;&lt;span style=&quot;background-color: initial;&quot;&gt;&amp;nbsp;public ItemOrder() { }&lt;/span&gt;&lt;/p&gt;" style="verticalAlign=top;align=left;overflow=fill;html=1;whiteSpace=wrap;connectable=1;imageWidth=20;" vertex="1" parent="Ks0WujP10DtmYbI-6dyg-0">
          <mxGeometry x="300" y="150" width="270" height="170" as="geometry" />
        </mxCell>
        <mxCell id="Ks0WujP10DtmYbI-6dyg-75" value="&lt;p style=&quot;margin:0px;margin-top:4px;text-align:center;&quot;&gt;Order :&amp;nbsp;&lt;span style=&quot;background-color: initial;&quot;&gt;BaseEntity&lt;/span&gt;&lt;br&gt;&lt;/p&gt;&lt;hr size=&quot;1&quot; style=&quot;border-style:solid;&quot;&gt;&lt;p style=&quot;margin:0px;margin-left:4px;&quot;&gt;+&amp;nbsp;&lt;span style=&quot;background-color: initial;&quot;&gt;Guid UserId&lt;/span&gt;&lt;/p&gt;&lt;p style=&quot;margin:0px;margin-left:4px;&quot;&gt;&lt;span style=&quot;background-color: initial;&quot;&gt;+&amp;nbsp;&lt;/span&gt;&lt;span style=&quot;background-color: initial;&quot;&gt;User User&lt;/span&gt;&lt;/p&gt;&lt;p style=&quot;margin:0px;margin-left:4px;&quot;&gt;&lt;span style=&quot;background-color: initial;&quot;&gt;+&amp;nbsp;&lt;/span&gt;&lt;span style=&quot;background-color: initial;&quot;&gt;ICollection&amp;lt;ItemOrder&amp;gt; items&lt;/span&gt;&lt;/p&gt;&lt;p style=&quot;margin:0px;margin-left:4px;&quot;&gt;&lt;span style=&quot;background-color: initial;&quot;&gt;+&amp;nbsp;&lt;/span&gt;&lt;span style=&quot;background-color: initial;&quot;&gt;DateTime DateOrder&lt;/span&gt;&lt;/p&gt;&lt;p style=&quot;margin:0px;margin-left:4px;&quot;&gt;&lt;span style=&quot;background-color: initial;&quot;&gt;+&amp;nbsp;&lt;/span&gt;&lt;span style=&quot;background-color: initial;&quot;&gt;double TotalPrice&lt;/span&gt;&lt;/p&gt;&lt;hr size=&quot;1&quot; style=&quot;border-style:solid;&quot;&gt;&lt;p style=&quot;margin:0px;margin-left:4px;&quot;&gt;+&amp;nbsp;&lt;span style=&quot;background-color: initial;&quot;&gt;public Order(Guid userId)&lt;/span&gt;&lt;/p&gt;&lt;p style=&quot;margin: 0px 0px 0px 4px;&quot;&gt;&lt;span style=&quot;background-color: initial;&quot;&gt;+&amp;nbsp;&lt;/span&gt;&lt;span style=&quot;background-color: initial;&quot;&gt;public Order() {}&lt;/span&gt;&lt;/p&gt;" style="verticalAlign=top;align=left;overflow=fill;html=1;whiteSpace=wrap;connectable=1;imageWidth=20;" vertex="1" parent="Ks0WujP10DtmYbI-6dyg-0">
          <mxGeometry x="10" y="150" width="280" height="170" as="geometry" />
        </mxCell>
        <mxCell id="Ks0WujP10DtmYbI-6dyg-76" value="&lt;p style=&quot;margin:0px;margin-top:4px;text-align:center;&quot;&gt;Product :&amp;nbsp;&lt;span style=&quot;background-color: initial;&quot;&gt;BaseEntity&lt;/span&gt;&lt;br&gt;&lt;/p&gt;&lt;hr size=&quot;1&quot; style=&quot;border-style:solid;&quot;&gt;&lt;p style=&quot;margin:0px;margin-left:4px;&quot;&gt;+ string Name&lt;/p&gt;&lt;p style=&quot;margin:0px;margin-left:4px;&quot;&gt;+ string UnitOfMeasure&lt;/p&gt;&lt;p style=&quot;margin:0px;margin-left:4px;&quot;&gt;+ bool Available&lt;/p&gt;&lt;p style=&quot;margin:0px;margin-left:4px;&quot;&gt;+ DateTime ExpiryDate&lt;/p&gt;&lt;p style=&quot;margin:0px;margin-left:4px;&quot;&gt;+ double Price&lt;/p&gt;&lt;p style=&quot;margin:0px;margin-left:4px;&quot;&gt;+ Guid? CategoryId&lt;/p&gt;&lt;p style=&quot;margin:0px;margin-left:4px;&quot;&gt;+ Category Category&lt;/p&gt;&lt;p style=&quot;margin:0px;margin-left:4px;&quot;&gt;+ Guid? SupplierId&lt;/p&gt;&lt;p style=&quot;margin:0px;margin-left:4px;&quot;&gt;+ Supplier Supplier&lt;/p&gt;&lt;hr size=&quot;1&quot; style=&quot;border-style:solid;&quot;&gt;&lt;p style=&quot;margin:0px;margin-left:4px;&quot;&gt;+&amp;nbsp;&lt;span style=&quot;background-color: initial;&quot;&gt;&amp;nbsp;public Product(Guid Id,string name, string unitOfMeasure, bool available, DateTime expiryDate,double price, Guid categoryId, Guid supplierId)&lt;/span&gt;&lt;/p&gt;&lt;p style=&quot;margin: 0px 0px 0px 4px;&quot;&gt;&lt;span style=&quot;background-color: initial;&quot;&gt;+&amp;nbsp;&lt;/span&gt;&lt;span style=&quot;background-color: initial;&quot;&gt;public Product() { }&lt;/span&gt;&lt;/p&gt;" style="verticalAlign=top;align=left;overflow=fill;html=1;whiteSpace=wrap;connectable=1;imageWidth=20;" vertex="1" parent="Ks0WujP10DtmYbI-6dyg-0">
          <mxGeometry x="10" y="330" width="280" height="260" as="geometry" />
        </mxCell>
        <mxCell id="Ks0WujP10DtmYbI-6dyg-77" value="&lt;p style=&quot;margin:0px;margin-top:4px;text-align:center;&quot;&gt;Supplier :&lt;span style=&quot;background-color: initial;&quot;&gt;BaseEntity&lt;/span&gt;&lt;br&gt;&lt;/p&gt;&lt;hr size=&quot;1&quot; style=&quot;border-style:solid;&quot;&gt;&lt;p style=&quot;margin:0px;margin-left:4px;&quot;&gt;+&amp;nbsp;&lt;span style=&quot;background-color: initial;&quot;&gt;string CompanyName&lt;/span&gt;&lt;/p&gt;&lt;p style=&quot;margin:0px;margin-left:4px;&quot;&gt;&lt;span style=&quot;background-color: initial;&quot;&gt;+&amp;nbsp;&lt;/span&gt;&lt;span style=&quot;background-color: initial;&quot;&gt;string ContactInfo&lt;/span&gt;&lt;/p&gt;&lt;hr size=&quot;1&quot; style=&quot;border-style:solid;&quot;&gt;&lt;p style=&quot;margin:0px;margin-left:4px;&quot;&gt;+&amp;nbsp;&lt;span style=&quot;background-color: initial;&quot;&gt;public Supplier(Guid id,string companyName, string contactInfo)&amp;nbsp;&lt;/span&gt;&lt;/p&gt;&lt;p style=&quot;margin: 0px 0px 0px 4px;&quot;&gt;&lt;span style=&quot;background-color: initial;&quot;&gt;+&amp;nbsp;&lt;/span&gt;&lt;span style=&quot;background-color: initial;&quot;&gt;public Supplier() {}&lt;/span&gt;&lt;/p&gt;" style="verticalAlign=top;align=left;overflow=fill;html=1;whiteSpace=wrap;connectable=1;imageWidth=20;" vertex="1" parent="Ks0WujP10DtmYbI-6dyg-0">
          <mxGeometry x="300" y="330" width="270" height="120" as="geometry" />
        </mxCell>
        <mxCell id="Ks0WujP10DtmYbI-6dyg-78" value="&lt;p style=&quot;margin:0px;margin-top:4px;text-align:center;&quot;&gt;User :&amp;nbsp;&lt;span style=&quot;background-color: initial;&quot;&gt;BaseEntity&lt;/span&gt;&lt;br&gt;&lt;/p&gt;&lt;hr size=&quot;1&quot; style=&quot;border-style:solid;&quot;&gt;&lt;p style=&quot;margin:0px;margin-left:4px;&quot;&gt;+&amp;nbsp;&lt;span style=&quot;background-color: initial;&quot;&gt;string Email&lt;/span&gt;&lt;/p&gt;&lt;p style=&quot;margin:0px;margin-left:4px;&quot;&gt;&lt;span style=&quot;background-color: initial;&quot;&gt;+&amp;nbsp;&lt;/span&gt;&lt;span style=&quot;background-color: initial;&quot;&gt;string PasswordHash&lt;/span&gt;&lt;/p&gt;&lt;p style=&quot;margin:0px;margin-left:4px;&quot;&gt;&lt;span style=&quot;background-color: initial;&quot;&gt;+&amp;nbsp;&lt;/span&gt;&lt;span style=&quot;background-color: initial;&quot;&gt;string FullName&lt;/span&gt;&lt;/p&gt;&lt;p style=&quot;margin:0px;margin-left:4px;&quot;&gt;&lt;span style=&quot;background-color: initial;&quot;&gt;+&lt;/span&gt;&lt;span style=&quot;background-color: initial;&quot;&gt;&amp;nbsp;string Address&lt;/span&gt;&lt;/p&gt;&lt;p style=&quot;margin:0px;margin-left:4px;&quot;&gt;&lt;span style=&quot;background-color: initial;&quot;&gt;+ ICollection&amp;lt;Order&amp;gt; OrderHistory&lt;br&gt;&lt;/span&gt;&lt;/p&gt;&lt;hr size=&quot;1&quot; style=&quot;border-style:solid;&quot;&gt;&lt;p style=&quot;margin:0px;margin-left:4px;&quot;&gt;+&amp;nbsp;&lt;span style=&quot;background-color: initial;&quot;&gt;public User(Guid id,string email, string passwordHash, string fullName, string address)&lt;/span&gt;&lt;/p&gt;&lt;p style=&quot;margin: 0px 0px 0px 4px;&quot;&gt;&lt;span style=&quot;background-color: initial;&quot;&gt;+&amp;nbsp;&lt;/span&gt;&lt;span style=&quot;background-color: initial;&quot;&gt;public User() {}&lt;/span&gt;&lt;/p&gt;" style="verticalAlign=top;align=left;overflow=fill;html=1;whiteSpace=wrap;connectable=1;imageWidth=20;" vertex="1" parent="Ks0WujP10DtmYbI-6dyg-0">
          <mxGeometry x="300" y="460" width="270" height="170" as="geometry" />
        </mxCell>
        <mxCell id="Ks0WujP10DtmYbI-6dyg-89" value="&lt;p style=&quot;margin:0px;margin-top:4px;text-align:center;&quot;&gt;RegexPatterns&lt;br&gt;&lt;/p&gt;&lt;hr size=&quot;1&quot; style=&quot;border-style:solid;&quot;&gt;&lt;p style=&quot;margin:0px;margin-left:4px;&quot;&gt;+&lt;span style=&quot;background-color: initial;&quot;&gt;Regex Email&lt;/span&gt;&lt;/p&gt;&lt;p style=&quot;margin:0px;margin-left:4px;&quot;&gt;&lt;span style=&quot;background-color: initial;&quot;&gt;+&lt;/span&gt;&lt;span style=&quot;background-color: initial;&quot;&gt;Regex PhoneNumber&lt;/span&gt;&lt;/p&gt;&lt;p style=&quot;margin:0px;margin-left:4px;&quot;&gt;&lt;span style=&quot;background-color: initial;&quot;&gt;+&lt;/span&gt;&lt;span style=&quot;background-color: initial;&quot;&gt;Regex OnlyLetters&lt;/span&gt;&lt;/p&gt;&lt;p style=&quot;margin:0px;margin-left:4px;&quot;&gt;&lt;span style=&quot;background-color: initial;&quot;&gt;+&lt;/span&gt;&lt;span style=&quot;background-color: initial;&quot;&gt;Regex date&lt;/span&gt;&lt;/p&gt;&lt;p style=&quot;margin:0px;margin-left:4px;&quot;&gt;&lt;br&gt;&lt;/p&gt;" style="verticalAlign=top;align=left;overflow=fill;html=1;whiteSpace=wrap;connectable=1;imageWidth=20;" vertex="1" parent="Ks0WujP10DtmYbI-6dyg-0">
          <mxGeometry x="590" y="110" width="280" height="100" as="geometry" />
        </mxCell>
        <mxCell id="Ks0WujP10DtmYbI-6dyg-90" value="&lt;p style=&quot;margin:0px;margin-top:4px;text-align:center;&quot;&gt;ValidateException&lt;br&gt;&lt;/p&gt;&lt;hr size=&quot;1&quot; style=&quot;border-style:solid;&quot;&gt;&lt;p style=&quot;margin:0px;margin-left:4px;&quot;&gt;+&lt;span style=&quot;background-color: initial;&quot;&gt;&amp;nbsp;public static T ValidateWithErrors&amp;lt;T&amp;gt;(this IValidator&amp;lt;T&amp;gt; validator, T value)&lt;/span&gt;&lt;/p&gt;&lt;p style=&quot;margin:0px;margin-left:4px;&quot;&gt;&lt;br&gt;&lt;/p&gt;&lt;p style=&quot;margin:0px;margin-left:4px;&quot;&gt;&lt;br&gt;&lt;/p&gt;" style="verticalAlign=top;align=left;overflow=fill;html=1;whiteSpace=wrap;connectable=1;imageWidth=20;" vertex="1" parent="Ks0WujP10DtmYbI-6dyg-0">
          <mxGeometry x="590" y="30" width="410" height="60" as="geometry" />
        </mxCell>
        <mxCell id="Ks0WujP10DtmYbI-6dyg-91" value="&lt;p style=&quot;margin:0px;margin-top:4px;text-align:center;&quot;&gt;ExceptionMessage&lt;br&gt;&lt;/p&gt;&lt;hr size=&quot;1&quot; style=&quot;border-style:solid;&quot;&gt;&lt;p style=&quot;margin:0px;margin-left:4px;&quot;&gt;+&lt;span style=&quot;background-color: initial;&quot;&gt;&amp;nbsp;string NullException&lt;/span&gt;&lt;/p&gt;&lt;p style=&quot;margin:0px;margin-left:4px;&quot;&gt;&lt;span style=&quot;background-color: initial;&quot;&gt;+&lt;/span&gt;&lt;span style=&quot;background-color: initial;&quot;&gt;&amp;nbsp;string EmptyException&lt;/span&gt;&lt;/p&gt;&lt;p style=&quot;margin:0px;margin-left:4px;&quot;&gt;&lt;span style=&quot;background-color: initial;&quot;&gt;+&lt;/span&gt;&lt;span style=&quot;background-color: initial;&quot;&gt;&amp;nbsp;string PhoneNumberException&lt;/span&gt;&lt;/p&gt;&lt;p style=&quot;margin:0px;margin-left:4px;&quot;&gt;&lt;span style=&quot;background-color: initial;&quot;&gt;+&lt;/span&gt;&lt;span style=&quot;background-color: initial;&quot;&gt;&amp;nbsp;string EmailException&lt;/span&gt;&lt;/p&gt;&lt;p style=&quot;margin:0px;margin-left:4px;&quot;&gt;&lt;span style=&quot;background-color: initial;&quot;&gt;+&lt;/span&gt;&lt;span style=&quot;background-color: initial;&quot;&gt;&amp;nbsp;string OnlyLetters&lt;/span&gt;&lt;/p&gt;&lt;p style=&quot;margin:0px;margin-left:4px;&quot;&gt;&lt;span style=&quot;background-color: initial;&quot;&gt;+&lt;/span&gt;&lt;span style=&quot;background-color: initial;&quot;&gt;&amp;nbsp;string GreaterThanZero4&lt;/span&gt;&lt;/p&gt;&lt;p style=&quot;margin:0px;margin-left:4px;&quot;&gt;+&amp;nbsp;string dateForma&lt;/p&gt;&lt;p style=&quot;margin:0px;margin-left:4px;&quot;&gt;+&amp;nbsp;string charactersCount&lt;/p&gt;&lt;p style=&quot;margin:0px;margin-left:4px;&quot;&gt;&lt;br&gt;&lt;/p&gt;" style="verticalAlign=top;align=left;overflow=fill;html=1;whiteSpace=wrap;connectable=1;imageWidth=20;" vertex="1" parent="Ks0WujP10DtmYbI-6dyg-0">
          <mxGeometry x="590" y="240" width="280" height="150" as="geometry" />
        </mxCell>
        <mxCell id="Ks0WujP10DtmYbI-6dyg-92" value="&lt;p style=&quot;margin:0px;margin-top:4px;text-align:center;&quot;&gt;CategoryValidator : AbstractValidator&amp;lt;Category&amp;gt;&lt;br&gt;&lt;/p&gt;&lt;hr size=&quot;1&quot; style=&quot;border-style:solid;&quot;&gt;&lt;p style=&quot;margin:0px;margin-left:4px;&quot;&gt;+&lt;span style=&quot;background-color: initial;&quot;&gt;&amp;nbsp;&lt;/span&gt;&lt;span style=&quot;background-color: initial;&quot;&gt;public CategoryValidator(string paramName)&lt;/span&gt;&lt;/p&gt;&lt;p style=&quot;margin:0px;margin-left:4px;&quot;&gt;&lt;br&gt;&lt;/p&gt;&lt;p style=&quot;margin:0px;margin-left:4px;&quot;&gt;&lt;br&gt;&lt;/p&gt;" style="verticalAlign=top;align=left;overflow=fill;html=1;whiteSpace=wrap;connectable=1;imageWidth=20;" vertex="1" parent="Ks0WujP10DtmYbI-6dyg-0">
          <mxGeometry x="880" y="260" width="280" height="50" as="geometry" />
        </mxCell>
        <mxCell id="Ks0WujP10DtmYbI-6dyg-127" value="&lt;p style=&quot;margin:0px;margin-top:4px;text-align:center;&quot;&gt;ItemOrderValidator : AbstractValidator&amp;lt;ItemOrder&amp;gt;&lt;br&gt;&lt;/p&gt;&lt;hr size=&quot;1&quot; style=&quot;border-style:solid;&quot;&gt;&lt;p style=&quot;margin:0px;margin-left:4px;&quot;&gt;+&lt;span style=&quot;background-color: initial;&quot;&gt;&amp;nbsp;&lt;/span&gt;&lt;span style=&quot;background-color: initial;&quot;&gt;public ItemOrderValidator(string paramName)&amp;nbsp;&lt;/span&gt;&lt;/p&gt;&lt;p style=&quot;margin:0px;margin-left:4px;&quot;&gt;&lt;br&gt;&lt;/p&gt;" style="verticalAlign=top;align=left;overflow=fill;html=1;whiteSpace=wrap;connectable=1;imageWidth=20;" vertex="1" parent="Ks0WujP10DtmYbI-6dyg-0">
          <mxGeometry x="880" y="350" width="280" height="50" as="geometry" />
        </mxCell>
        <mxCell id="Ks0WujP10DtmYbI-6dyg-129" value="&lt;p style=&quot;margin:0px;margin-top:4px;text-align:center;&quot;&gt;&amp;nbsp;OrderValidator : AbstractValidator&amp;lt;Order&amp;gt;&lt;br&gt;&lt;/p&gt;&lt;hr size=&quot;1&quot; style=&quot;border-style:solid;&quot;&gt;&lt;p style=&quot;margin:0px;margin-left:4px;&quot;&gt;+&lt;span style=&quot;background-color: initial;&quot;&gt;&amp;nbsp;public OrderValidator(string paramName)&amp;nbsp;&lt;/span&gt;&lt;/p&gt;" style="verticalAlign=top;align=left;overflow=fill;html=1;whiteSpace=wrap;connectable=1;imageWidth=20;" vertex="1" parent="Ks0WujP10DtmYbI-6dyg-0">
          <mxGeometry x="590" y="440" width="280" height="55" as="geometry" />
        </mxCell>
        <mxCell id="Ks0WujP10DtmYbI-6dyg-128" value="&lt;p style=&quot;margin:0px;margin-top:4px;text-align:center;&quot;&gt;ProductValidator : AbstractValidator&amp;lt;Product&amp;gt;&lt;br&gt;&lt;/p&gt;&lt;hr size=&quot;1&quot; style=&quot;border-style:solid;&quot;&gt;&lt;p style=&quot;margin:0px;margin-left:4px;&quot;&gt;+&lt;span style=&quot;background-color: initial;&quot;&gt;&amp;nbsp;&lt;/span&gt;&lt;span style=&quot;background-color: initial;&quot;&gt;public ProductValidator(string paramName)&lt;/span&gt;&lt;/p&gt;&lt;p style=&quot;margin:0px;margin-left:4px;&quot;&gt;&lt;br&gt;&lt;/p&gt;" style="verticalAlign=top;align=left;overflow=fill;html=1;whiteSpace=wrap;connectable=1;imageWidth=20;" vertex="1" parent="Ks0WujP10DtmYbI-6dyg-0">
          <mxGeometry x="590" y="530" width="280" height="60" as="geometry" />
        </mxCell>
        <mxCell id="Ks0WujP10DtmYbI-6dyg-132" value="&lt;p style=&quot;margin:0px;margin-top:4px;text-align:center;&quot;&gt;SupplierValidator : AbstractValidator&amp;lt;Supplier&amp;gt;&lt;br&gt;&lt;/p&gt;&lt;hr size=&quot;1&quot; style=&quot;border-style:solid;&quot;&gt;&lt;p style=&quot;margin:0px;margin-left:4px;&quot;&gt;+&lt;span style=&quot;background-color: initial;&quot;&gt;&amp;nbsp;&lt;/span&gt;&lt;span style=&quot;background-color: initial;&quot;&gt;public SupplierValidator(string paramName)&amp;nbsp;&lt;/span&gt;&lt;/p&gt;&lt;p style=&quot;margin:0px;margin-left:4px;&quot;&gt;&lt;br&gt;&lt;/p&gt;" style="verticalAlign=top;align=left;overflow=fill;html=1;whiteSpace=wrap;connectable=1;imageWidth=20;" vertex="1" parent="Ks0WujP10DtmYbI-6dyg-0">
          <mxGeometry x="880" y="100" width="280" height="50" as="geometry" />
        </mxCell>
        <mxCell id="Ks0WujP10DtmYbI-6dyg-131" value="&lt;p style=&quot;margin:0px;margin-top:4px;text-align:center;&quot;&gt;UserValidator : AbstractValidator&amp;lt;User&amp;gt;&lt;br&gt;&lt;/p&gt;&lt;hr size=&quot;1&quot; style=&quot;border-style:solid;&quot;&gt;&lt;p style=&quot;margin:0px;margin-left:4px;&quot;&gt;+&amp;nbsp;&lt;span style=&quot;background-color: initial;&quot;&gt;public UserValidator(string paramName)&amp;nbsp;&lt;/span&gt;&lt;/p&gt;&lt;p style=&quot;margin:0px;margin-left:4px;&quot;&gt;&lt;br&gt;&lt;/p&gt;" style="verticalAlign=top;align=left;overflow=fill;html=1;whiteSpace=wrap;connectable=1;imageWidth=20;" vertex="1" parent="Ks0WujP10DtmYbI-6dyg-0">
          <mxGeometry x="880" y="180" width="280" height="50" as="geometry" />
        </mxCell>
        <mxCell id="Ks0WujP10DtmYbI-6dyg-79" value="Application" style="swimlane;whiteSpace=wrap;html=1;" vertex="1" parent="WIyWlLk6GJQsqaUBKTNV-1">
          <mxGeometry x="70" y="690" width="1060" height="786" as="geometry" />
        </mxCell>
        <mxCell id="Ks0WujP10DtmYbI-6dyg-80" value="&lt;p style=&quot;margin:0px;margin-top:4px;text-align:center;&quot;&gt;IBaseRepository&amp;lt;T&amp;gt;&lt;br&gt;&lt;/p&gt;&lt;hr size=&quot;1&quot; style=&quot;border-style:solid;&quot;&gt;&lt;p style=&quot;margin:0px;margin-left:4px;&quot;&gt;&lt;span style=&quot;background-color: initial;&quot;&gt;+&amp;nbsp;&lt;/span&gt;&lt;span style=&quot;background-color: initial;&quot;&gt;Task&amp;lt;T&amp;gt; CreateAsync(T entity, CancellationToken token);&lt;/span&gt;&lt;/p&gt;&lt;p style=&quot;margin: 0px 0px 0px 4px;&quot;&gt;&lt;span style=&quot;background-color: initial;&quot;&gt;+&amp;nbsp;&lt;/span&gt;&lt;span style=&quot;background-color: initial;&quot;&gt;Task&amp;lt;T&amp;gt; UpdateAsync(T entity, CancellationToken token);&lt;/span&gt;&lt;/p&gt;&lt;p style=&quot;margin: 0px 0px 0px 4px;&quot;&gt;&lt;span style=&quot;background-color: initial;&quot;&gt;+&amp;nbsp;&lt;/span&gt;&lt;span style=&quot;background-color: initial;&quot;&gt;Task&amp;lt;bool&amp;gt; DeleteAsync(Guid id, CancellationToken token);&lt;/span&gt;&lt;/p&gt;&lt;p style=&quot;margin: 0px 0px 0px 4px;&quot;&gt;&lt;span style=&quot;background-color: initial;&quot;&gt;+&amp;nbsp;&lt;/span&gt;&lt;span style=&quot;background-color: initial;&quot;&gt;Task&amp;lt;T&amp;gt; GetByIdAsync(Guid id, CancellationToken token);&lt;/span&gt;&lt;/p&gt;&lt;p style=&quot;margin: 0px 0px 0px 4px;&quot;&gt;&lt;span style=&quot;background-color: initial;&quot;&gt;+&amp;nbsp;&lt;/span&gt;&lt;span style=&quot;background-color: initial;&quot;&gt;Task&amp;lt;ICollection&amp;lt;T&amp;gt;&amp;gt; GetAllAsync(CancellationToken token);&amp;nbsp;&lt;/span&gt;&lt;/p&gt;" style="verticalAlign=top;align=left;overflow=fill;html=1;whiteSpace=wrap;connectable=1;imageWidth=20;" vertex="1" parent="Ks0WujP10DtmYbI-6dyg-79">
          <mxGeometry x="20" y="40" width="410" height="110" as="geometry" />
        </mxCell>
        <mxCell id="Ks0WujP10DtmYbI-6dyg-81" value="public interface ICategoryRepository : IBaseRepository&amp;lt;Category&amp;gt;;" style="html=1;whiteSpace=wrap;" vertex="1" parent="Ks0WujP10DtmYbI-6dyg-79">
          <mxGeometry x="20" y="160" width="410" height="30" as="geometry" />
        </mxCell>
        <mxCell id="Ks0WujP10DtmYbI-6dyg-82" value="public interface IOrderRepository : IBaseRepository&amp;lt;Order&amp;gt;;" style="html=1;whiteSpace=wrap;" vertex="1" parent="Ks0WujP10DtmYbI-6dyg-79">
          <mxGeometry x="20" y="200" width="410" height="30" as="geometry" />
        </mxCell>
        <mxCell id="Ks0WujP10DtmYbI-6dyg-84" value="&lt;div&gt;&amp;nbsp; &amp;nbsp; public interface IProductRepository : IBaseRepository&amp;lt;Product&amp;gt;;&lt;/div&gt;" style="html=1;whiteSpace=wrap;" vertex="1" parent="Ks0WujP10DtmYbI-6dyg-79">
          <mxGeometry x="20" y="240" width="410" height="30" as="geometry" />
        </mxCell>
        <mxCell id="Ks0WujP10DtmYbI-6dyg-86" value="&lt;div&gt;&amp;nbsp; &amp;nbsp; public interface ISupplierRepositoty : IBaseRepository&amp;lt;Supplier&amp;gt;;&lt;/div&gt;" style="html=1;whiteSpace=wrap;" vertex="1" parent="Ks0WujP10DtmYbI-6dyg-79">
          <mxGeometry x="20" y="280" width="410" height="30" as="geometry" />
        </mxCell>
        <mxCell id="Ks0WujP10DtmYbI-6dyg-88" value="&lt;p style=&quot;margin:0px;margin-top:4px;text-align:center;&quot;&gt;public interface IUserRepository : IBaseRepository&amp;lt;User&amp;gt;&lt;br&gt;&lt;/p&gt;&lt;hr size=&quot;1&quot; style=&quot;border-style:solid;&quot;&gt;&lt;p style=&quot;margin:0px;margin-left:4px;&quot;&gt;&lt;span style=&quot;background-color: initial;&quot;&gt;+&amp;nbsp;&lt;/span&gt;&lt;span style=&quot;background-color: initial;&quot;&gt;&amp;nbsp;public Task&amp;lt;User&amp;gt; LoginAsync(User entity, CancellationToken token);&lt;/span&gt;&lt;span style=&quot;background-color: initial;&quot;&gt;&amp;nbsp;&lt;/span&gt;&lt;/p&gt;" style="verticalAlign=top;align=left;overflow=fill;html=1;whiteSpace=wrap;connectable=1;imageWidth=20;" vertex="1" parent="Ks0WujP10DtmYbI-6dyg-79">
          <mxGeometry x="20" y="320" width="410" height="50" as="geometry" />
        </mxCell>
        <mxCell id="Ks0WujP10DtmYbI-6dyg-134" value="&lt;p style=&quot;margin:0px;margin-top:4px;text-align:center;&quot;&gt;ICategoryService&lt;br&gt;&lt;/p&gt;&lt;hr size=&quot;1&quot; style=&quot;border-style:solid;&quot;&gt;&lt;p style=&quot;margin:0px;margin-left:4px;&quot;&gt;+ Task&amp;lt;CategoryCreateResponce&amp;gt; CreateAsync(CategoryCreateRequest entity, CancellationToken token);&lt;/p&gt;&lt;p style=&quot;margin:0px;margin-left:4px;&quot;&gt;+ Task&amp;lt;CategotyUpdateResponce&amp;gt; UpdateAsync(CategoryUpdateRequest entity, CancellationToken token);&lt;/p&gt;&lt;p style=&quot;margin:0px;margin-left:4px;&quot;&gt;+ Task&amp;lt;bool&amp;gt; DeleteAsync(Guid id, CancellationToken token);&lt;/p&gt;&lt;p style=&quot;margin:0px;margin-left:4px;&quot;&gt;+ Task&amp;lt;CategoryGetByIdResponce&amp;gt; GetByIdAsync(Guid id, CancellationToken token);&lt;/p&gt;&lt;p style=&quot;margin:0px;margin-left:4px;&quot;&gt;+ Task&amp;lt;ICollection&amp;lt;CategoryGetAllResponce&amp;gt;&amp;gt; GetAllAsync(CancellationToken token);&lt;/p&gt;&lt;p style=&quot;margin:0px;margin-left:4px;&quot;&gt;&lt;span style=&quot;background-color: initial;&quot;&gt;&amp;nbsp;&lt;/span&gt;&lt;br&gt;&lt;/p&gt;" style="verticalAlign=top;align=left;overflow=fill;html=1;whiteSpace=wrap;connectable=1;imageWidth=20;" vertex="1" parent="Ks0WujP10DtmYbI-6dyg-79">
          <mxGeometry x="450" y="40" width="590" height="110" as="geometry" />
        </mxCell>
        <mxCell id="Ks0WujP10DtmYbI-6dyg-136" value="&lt;p style=&quot;margin:0px;margin-top:4px;text-align:center;&quot;&gt;ICryptographyService&lt;br&gt;&lt;/p&gt;&lt;hr size=&quot;1&quot; style=&quot;border-style:solid;&quot;&gt;&lt;p style=&quot;margin:0px;margin-left:4px;&quot;&gt;&amp;nbsp;+ string HashPassword(string password);&lt;/p&gt;&lt;p style=&quot;margin:0px;margin-left:4px;&quot;&gt;&amp;nbsp;+ bool VerifyPassword(string password, string hashpassword);&lt;/p&gt;&lt;p style=&quot;margin:0px;margin-left:4px;&quot;&gt;&amp;nbsp;+ byte[] GenerateHash(string password, byte[] salt);&lt;/p&gt;&lt;p style=&quot;margin:0px;margin-left:4px;&quot;&gt;&amp;nbsp;+ byte[] GenerateSalt();&lt;/p&gt;&lt;p style=&quot;margin:0px;margin-left:4px;&quot;&gt;&amp;nbsp;+ bool AreHashesEqual(byte[] hash1, byte[] hash2);&lt;/p&gt;&lt;p style=&quot;margin:0px;margin-left:4px;&quot;&gt;&lt;span style=&quot;background-color: initial;&quot;&gt;&amp;nbsp;&lt;/span&gt;&lt;br&gt;&lt;/p&gt;" style="verticalAlign=top;align=left;overflow=fill;html=1;whiteSpace=wrap;connectable=1;imageWidth=20;" vertex="1" parent="Ks0WujP10DtmYbI-6dyg-79">
          <mxGeometry x="450" y="250" width="350" height="110" as="geometry" />
        </mxCell>
        <mxCell id="Ks0WujP10DtmYbI-6dyg-138" value="&lt;p style=&quot;margin:0px;margin-top:4px;text-align:center;&quot;&gt;IOrderService&lt;/p&gt;&lt;p style=&quot;margin:0px;margin-left:4px;&quot;&gt;&lt;span style=&quot;background-color: initial;&quot;&gt;&amp;nbsp;&lt;/span&gt;&lt;br&gt;&lt;/p&gt;" style="verticalAlign=top;align=left;overflow=fill;html=1;whiteSpace=wrap;connectable=1;imageWidth=20;" vertex="1" parent="Ks0WujP10DtmYbI-6dyg-79">
          <mxGeometry x="720" y="160" width="100" height="20" as="geometry" />
        </mxCell>
        <mxCell id="Ks0WujP10DtmYbI-6dyg-142" value="&lt;p style=&quot;margin:0px;margin-top:4px;text-align:center;&quot;&gt;&lt;b&gt;CategoryService : ICategoryService&lt;/b&gt;&lt;br&gt;&lt;/p&gt;&lt;hr size=&quot;1&quot; style=&quot;border-style:solid;&quot;&gt;&lt;p style=&quot;margin:0px;margin-left:4px;&quot;&gt;&lt;span style=&quot;background-color: initial;&quot;&gt;+&lt;/span&gt;&lt;span style=&quot;background-color: initial;&quot;&gt;&amp;nbsp;readonly ICategoryRepository _rep;&lt;/span&gt;&lt;/p&gt;&lt;p style=&quot;margin: 0px 0px 0px 4px;&quot;&gt;+ readonly IMapper _mapper;&lt;/p&gt;&lt;hr size=&quot;1&quot; style=&quot;border-style:solid;&quot;&gt;&lt;p style=&quot;margin:0px;margin-left:4px;&quot;&gt;+&amp;nbsp;&lt;span style=&quot;background-color: initial;&quot;&gt;public CategoryService(ICategoryRepository rep, IMapper map)&amp;nbsp;&lt;/span&gt;&lt;/p&gt;" style="verticalAlign=top;align=left;overflow=fill;html=1;whiteSpace=wrap;" vertex="1" parent="Ks0WujP10DtmYbI-6dyg-79">
          <mxGeometry x="20" y="390" width="220" height="130" as="geometry" />
        </mxCell>
        <mxCell id="Ks0WujP10DtmYbI-6dyg-145" value="&lt;p style=&quot;margin:0px;margin-top:4px;text-align:center;&quot;&gt;IProductService&lt;br&gt;&lt;/p&gt;&lt;p style=&quot;margin:0px;margin-left:4px;&quot;&gt;&lt;br&gt;&lt;/p&gt;&lt;div&gt;&lt;br&gt;&lt;/div&gt;&lt;p style=&quot;margin:0px;margin-left:4px;&quot;&gt;&lt;span style=&quot;background-color: initial;&quot;&gt;&amp;nbsp;&lt;/span&gt;&lt;br&gt;&lt;/p&gt;" style="verticalAlign=top;align=left;overflow=fill;html=1;whiteSpace=wrap;connectable=1;imageWidth=20;" vertex="1" parent="Ks0WujP10DtmYbI-6dyg-79">
          <mxGeometry x="610" y="160" width="100" height="20" as="geometry" />
        </mxCell>
        <mxCell id="Ks0WujP10DtmYbI-6dyg-146" value="&lt;p style=&quot;margin:0px;margin-top:4px;text-align:center;&quot;&gt;ISupplierService&lt;br&gt;&lt;/p&gt;&lt;p style=&quot;margin:0px;margin-left:4px;&quot;&gt;&lt;br&gt;&lt;/p&gt;&lt;div&gt;&lt;br&gt;&lt;/div&gt;&lt;div&gt;&lt;br&gt;&lt;/div&gt;&lt;div&gt;&lt;br&gt;&lt;/div&gt;&lt;p style=&quot;margin:0px;margin-left:4px;&quot;&gt;&lt;span style=&quot;background-color: initial;&quot;&gt;&amp;nbsp;&lt;/span&gt;&lt;br&gt;&lt;/p&gt;" style="verticalAlign=top;align=left;overflow=fill;html=1;whiteSpace=wrap;connectable=1;imageWidth=20;" vertex="1" parent="Ks0WujP10DtmYbI-6dyg-79">
          <mxGeometry x="450" y="160" width="150" height="20" as="geometry" />
        </mxCell>
        <mxCell id="Ks0WujP10DtmYbI-6dyg-160" value="&lt;p style=&quot;margin:0px;margin-top:4px;text-align:center;&quot;&gt;IUserService&lt;br&gt;&lt;/p&gt;&lt;hr size=&quot;1&quot; style=&quot;border-style:solid;&quot;&gt;&lt;p style=&quot;margin:0px;margin-left:4px;&quot;&gt;&lt;span style=&quot;background-color: initial;&quot;&gt;+ Task&amp;lt;Guid&amp;gt; LoginAsync(UserLoginRequest entity,CancellationToken token);&lt;/span&gt;&lt;br&gt;&lt;/p&gt;&lt;div&gt;&lt;br&gt;&lt;/div&gt;&lt;div&gt;&lt;br&gt;&lt;/div&gt;&lt;div&gt;&lt;br&gt;&lt;/div&gt;&lt;div&gt;&lt;br&gt;&lt;/div&gt;&lt;p style=&quot;margin:0px;margin-left:4px;&quot;&gt;&lt;span style=&quot;background-color: initial;&quot;&gt;&amp;nbsp;&lt;/span&gt;&lt;br&gt;&lt;/p&gt;" style="verticalAlign=top;align=left;overflow=fill;html=1;whiteSpace=wrap;connectable=1;imageWidth=20;" vertex="1" parent="Ks0WujP10DtmYbI-6dyg-79">
          <mxGeometry x="450" y="190" width="395" height="50" as="geometry" />
        </mxCell>
        <mxCell id="Ks0WujP10DtmYbI-6dyg-161" value="&lt;p style=&quot;margin:0px;margin-top:4px;text-align:center;&quot;&gt;&lt;b&gt;CryptographyService : ICryptographyService&lt;/b&gt;&lt;br&gt;&lt;/p&gt;" style="verticalAlign=top;align=left;overflow=fill;html=1;whiteSpace=wrap;" vertex="1" parent="Ks0WujP10DtmYbI-6dyg-79">
          <mxGeometry x="470" y="374" width="260" height="30" as="geometry" />
        </mxCell>
        <mxCell id="Ks0WujP10DtmYbI-6dyg-162" value="&lt;p style=&quot;margin:0px;margin-top:4px;text-align:center;&quot;&gt;&lt;b&gt;OrderService : IOrderService&lt;/b&gt;&lt;br&gt;&lt;/p&gt;&lt;hr size=&quot;1&quot; style=&quot;border-style:solid;&quot;&gt;&lt;p style=&quot;margin:0px;margin-left:4px;&quot;&gt;&lt;span style=&quot;background-color: initial;&quot;&gt;+&lt;/span&gt;&lt;span style=&quot;background-color: initial;&quot;&gt;readonly IOrderRepository _rep;&lt;/span&gt;&lt;br&gt;&lt;/p&gt;&lt;p style=&quot;margin:0px;margin-left:4px;&quot;&gt;+ readonly IMapper _mapper;&lt;/p&gt;&lt;hr size=&quot;1&quot; style=&quot;border-style:solid;&quot;&gt;&lt;p style=&quot;margin:0px;margin-left:4px;&quot;&gt;+&amp;nbsp;&lt;span style=&quot;background-color: initial;&quot;&gt;public OrderService(IOrderRepository rep, IMapper map)&lt;/span&gt;&lt;/p&gt;" style="verticalAlign=top;align=left;overflow=fill;html=1;whiteSpace=wrap;" vertex="1" parent="Ks0WujP10DtmYbI-6dyg-79">
          <mxGeometry x="250" y="390" width="200" height="120" as="geometry" />
        </mxCell>
        <mxCell id="Ks0WujP10DtmYbI-6dyg-163" value="&lt;p style=&quot;margin:0px;margin-top:4px;text-align:center;&quot;&gt;&lt;b&gt;ProductService : IProductService&lt;/b&gt;&lt;br&gt;&lt;/p&gt;&lt;hr size=&quot;1&quot; style=&quot;border-style:solid;&quot;&gt;&lt;p style=&quot;margin:0px;margin-left:4px;&quot;&gt;&lt;span style=&quot;background-color: initial;&quot;&gt;+&amp;nbsp;&lt;/span&gt;&lt;span style=&quot;background-color: initial;&quot;&gt;readonly IProductRepository _rep&lt;/span&gt;&lt;span style=&quot;background-color: initial;&quot;&gt;;&lt;/span&gt;&lt;/p&gt;&lt;p style=&quot;margin:0px;margin-left:4px;&quot;&gt;+&amp;nbsp;readonly IMapper _mapper;&lt;/p&gt;&lt;hr size=&quot;1&quot; style=&quot;border-style:solid;&quot;&gt;&lt;p style=&quot;margin:0px;margin-left:4px;&quot;&gt;+&amp;nbsp;&lt;span style=&quot;background-color: initial;&quot;&gt;public ProductService(IProductRepository rep, IMapper mapper)&lt;/span&gt;&lt;/p&gt;" style="verticalAlign=top;align=left;overflow=fill;html=1;whiteSpace=wrap;" vertex="1" parent="Ks0WujP10DtmYbI-6dyg-79">
          <mxGeometry x="20" y="530" width="200" height="120" as="geometry" />
        </mxCell>
        <mxCell id="Ks0WujP10DtmYbI-6dyg-164" value="&lt;p style=&quot;margin:0px;margin-top:4px;text-align:center;&quot;&gt;&lt;b&gt;&amp;nbsp;SupplierService : ISupplierService&lt;/b&gt;&lt;br&gt;&lt;/p&gt;&lt;hr size=&quot;1&quot; style=&quot;border-style:solid;&quot;&gt;&lt;p style=&quot;margin:0px;margin-left:4px;&quot;&gt;&lt;span style=&quot;background-color: initial;&quot;&gt;+&amp;nbsp;&lt;/span&gt;&lt;span style=&quot;background-color: initial;&quot;&gt;readonly ISupplierRepositoty _rep;&lt;/span&gt;&lt;/p&gt;&lt;p style=&quot;margin:0px;margin-left:4px;&quot;&gt;+&amp;nbsp;readonly IMapper _mapper;&lt;/p&gt;&lt;hr size=&quot;1&quot; style=&quot;border-style:solid;&quot;&gt;&lt;p style=&quot;margin:0px;margin-left:4px;&quot;&gt;+&amp;nbsp;&lt;span style=&quot;background-color: initial;&quot;&gt;public SupplierService(ISupplierRepositoty rep, IMapper mapper)&lt;/span&gt;&lt;/p&gt;" style="verticalAlign=top;align=left;overflow=fill;html=1;whiteSpace=wrap;" vertex="1" parent="Ks0WujP10DtmYbI-6dyg-79">
          <mxGeometry x="240" y="520" width="210" height="120" as="geometry" />
        </mxCell>
        <mxCell id="Ks0WujP10DtmYbI-6dyg-165" value="&lt;p style=&quot;margin:0px;margin-top:4px;text-align:center;&quot;&gt;&lt;b&gt;UserService : IUserService&lt;/b&gt;&lt;br&gt;&lt;/p&gt;&lt;hr size=&quot;1&quot; style=&quot;border-style:solid;&quot;&gt;&lt;p style=&quot;margin:0px;margin-left:4px;&quot;&gt;&lt;span style=&quot;background-color: initial;&quot;&gt;+&amp;nbsp;&lt;/span&gt;&lt;span style=&quot;background-color: initial;&quot;&gt;readonly IUserRepository _rep;&lt;/span&gt;&lt;/p&gt;&lt;p style=&quot;margin:0px;margin-left:4px;&quot;&gt;+&amp;nbsp;readonly ICryptographyService _serv;&lt;/p&gt;&lt;p style=&quot;margin:0px;margin-left:4px;&quot;&gt;+&amp;nbsp;readonly IMapper _mapper;&lt;/p&gt;&lt;hr size=&quot;1&quot; style=&quot;border-style:solid;&quot;&gt;&lt;p style=&quot;margin:0px;margin-left:4px;&quot;&gt;+&amp;nbsp;&lt;span style=&quot;background-color: initial;&quot;&gt;public UserService(IUserRepository rep, ICryptographyService serv, IMapper mapper)&lt;/span&gt;&lt;/p&gt;" style="verticalAlign=top;align=left;overflow=fill;html=1;whiteSpace=wrap;" vertex="1" parent="Ks0WujP10DtmYbI-6dyg-79">
          <mxGeometry x="20" y="660" width="250" height="120" as="geometry" />
        </mxCell>
        <mxCell id="Ks0WujP10DtmYbI-6dyg-166" value="&lt;p style=&quot;margin:0px;margin-top:4px;text-align:center;&quot;&gt;AutoMapperConfig&lt;br&gt;&lt;/p&gt;&lt;hr size=&quot;1&quot; style=&quot;border-style:solid;&quot;&gt;&lt;p style=&quot;margin:0px;margin-left:4px;&quot;&gt;+&amp;nbsp;&amp;nbsp;static MapperConfiguration Configuration()&lt;/p&gt;&lt;p style=&quot;margin:0px;margin-left:4px;&quot;&gt;&lt;span style=&quot;background-color: initial;&quot;&gt;&amp;nbsp;&lt;/span&gt;&lt;br&gt;&lt;/p&gt;" style="verticalAlign=top;align=left;overflow=fill;html=1;whiteSpace=wrap;connectable=1;imageWidth=20;" vertex="1" parent="Ks0WujP10DtmYbI-6dyg-79">
          <mxGeometry x="470" y="422" width="250" height="54" as="geometry" />
        </mxCell>
        <mxCell id="Ks0WujP10DtmYbI-6dyg-167" value="&lt;p style=&quot;margin:0px;margin-top:4px;text-align:center;&quot;&gt;CategoryMapProfile : Profile&lt;br&gt;&lt;/p&gt;&lt;hr size=&quot;1&quot; style=&quot;border-style:solid;&quot;&gt;&lt;p style=&quot;margin:0px;margin-left:4px;&quot;&gt;+&amp;nbsp;CategoryMapProfile()&amp;nbsp;&lt;/p&gt;&lt;p style=&quot;margin:0px;margin-left:4px;&quot;&gt;&lt;span style=&quot;background-color: initial;&quot;&gt;&amp;nbsp;&lt;/span&gt;&lt;br&gt;&lt;/p&gt;" style="verticalAlign=top;align=left;overflow=fill;html=1;whiteSpace=wrap;connectable=1;imageWidth=20;" vertex="1" parent="Ks0WujP10DtmYbI-6dyg-79">
          <mxGeometry x="470" y="488" width="170" height="54" as="geometry" />
        </mxCell>
        <mxCell id="Ks0WujP10DtmYbI-6dyg-169" value="&lt;p style=&quot;margin:0px;margin-top:4px;text-align:center;&quot;&gt;OrderMapProfile : Profile&lt;br&gt;&lt;/p&gt;&lt;hr size=&quot;1&quot; style=&quot;border-style:solid;&quot;&gt;&lt;p style=&quot;margin:0px;margin-left:4px;&quot;&gt;+&amp;nbsp; OrderMapProfile()&lt;/p&gt;&lt;p style=&quot;margin:0px;margin-left:4px;&quot;&gt;&lt;span style=&quot;background-color: initial;&quot;&gt;&amp;nbsp;&lt;/span&gt;&lt;br&gt;&lt;/p&gt;" style="verticalAlign=top;align=left;overflow=fill;html=1;whiteSpace=wrap;connectable=1;imageWidth=20;" vertex="1" parent="Ks0WujP10DtmYbI-6dyg-79">
          <mxGeometry x="470" y="552" width="170" height="54" as="geometry" />
        </mxCell>
        <mxCell id="Ks0WujP10DtmYbI-6dyg-168" value="&lt;p style=&quot;margin:0px;margin-top:4px;text-align:center;&quot;&gt;ProductMapProfile : Profile&lt;br&gt;&lt;/p&gt;&lt;hr size=&quot;1&quot; style=&quot;border-style:solid;&quot;&gt;&lt;p style=&quot;margin:0px;margin-left:4px;&quot;&gt;+&amp;nbsp;ProductMapProfile()&lt;/p&gt;&lt;p style=&quot;margin:0px;margin-left:4px;&quot;&gt;&lt;span style=&quot;background-color: initial;&quot;&gt;&amp;nbsp;&lt;/span&gt;&lt;br&gt;&lt;/p&gt;" style="verticalAlign=top;align=left;overflow=fill;html=1;whiteSpace=wrap;connectable=1;imageWidth=20;" vertex="1" parent="Ks0WujP10DtmYbI-6dyg-79">
          <mxGeometry x="470" y="612" width="170" height="54" as="geometry" />
        </mxCell>
        <mxCell id="Ks0WujP10DtmYbI-6dyg-171" value="&lt;p style=&quot;margin:0px;margin-top:4px;text-align:center;&quot;&gt;SupplierMapProfile : Profile&lt;br&gt;&lt;/p&gt;&lt;hr size=&quot;1&quot; style=&quot;border-style:solid;&quot;&gt;&lt;p style=&quot;margin:0px;margin-left:4px;&quot;&gt;+&amp;nbsp;SupplierMapProfile()&amp;nbsp;&lt;/p&gt;&lt;p style=&quot;margin:0px;margin-left:4px;&quot;&gt;&lt;span style=&quot;background-color: initial;&quot;&gt;&amp;nbsp;&lt;/span&gt;&lt;br&gt;&lt;/p&gt;" style="verticalAlign=top;align=left;overflow=fill;html=1;whiteSpace=wrap;connectable=1;imageWidth=20;" vertex="1" parent="Ks0WujP10DtmYbI-6dyg-79">
          <mxGeometry x="470" y="672" width="170" height="54" as="geometry" />
        </mxCell>
        <mxCell id="Ks0WujP10DtmYbI-6dyg-170" value="&lt;p style=&quot;margin:0px;margin-top:4px;text-align:center;&quot;&gt;&amp;nbsp;UserMapProfile : Profile&lt;br&gt;&lt;/p&gt;&lt;hr size=&quot;1&quot; style=&quot;border-style:solid;&quot;&gt;&lt;p style=&quot;margin:0px;margin-left:4px;&quot;&gt;+&amp;nbsp;UserMapProfile()&lt;/p&gt;&lt;p style=&quot;margin:0px;margin-left:4px;&quot;&gt;&lt;span style=&quot;background-color: initial;&quot;&gt;&amp;nbsp;&lt;/span&gt;&lt;br&gt;&lt;/p&gt;" style="verticalAlign=top;align=left;overflow=fill;html=1;whiteSpace=wrap;connectable=1;imageWidth=20;" vertex="1" parent="Ks0WujP10DtmYbI-6dyg-79">
          <mxGeometry x="470" y="732" width="170" height="54" as="geometry" />
        </mxCell>
        <mxCell id="Ks0WujP10DtmYbI-6dyg-172" value="Infrastructure" style="swimlane;whiteSpace=wrap;html=1;" vertex="1" parent="WIyWlLk6GJQsqaUBKTNV-1">
          <mxGeometry x="1260" y="10" width="750" height="630" as="geometry" />
        </mxCell>
        <mxCell id="Ks0WujP10DtmYbI-6dyg-173" value="&lt;p style=&quot;margin:0px;margin-top:4px;text-align:center;&quot;&gt;&lt;i&gt;DataContext : DbContext&lt;/i&gt;&lt;br&gt;&lt;/p&gt;&lt;hr size=&quot;1&quot; style=&quot;border-style:solid;&quot;&gt;&lt;p style=&quot;margin:0px;margin-left:4px;&quot;&gt;&lt;span style=&quot;background-color: initial;&quot;&gt;+ DbSet&amp;lt;Order&amp;gt; orders&lt;/span&gt;&lt;/p&gt;&lt;p style=&quot;margin:0px;margin-left:4px;&quot;&gt;+ DbSet&amp;lt;User&amp;gt; users&lt;/p&gt;&lt;p style=&quot;margin:0px;margin-left:4px;&quot;&gt;+ DbSet&amp;lt;Category&amp;gt; categories&lt;/p&gt;&lt;p style=&quot;margin:0px;margin-left:4px;&quot;&gt;+ DbSet&amp;lt;ItemOrder&amp;gt; itemOrders&lt;/p&gt;&lt;p style=&quot;margin:0px;margin-left:4px;&quot;&gt;+ DbSet&amp;lt;Product&amp;gt; products&lt;/p&gt;&lt;p style=&quot;margin:0px;margin-left:4px;&quot;&gt;+ DbSet&amp;lt;Supplier&amp;gt; suppliers&lt;/p&gt;&lt;hr size=&quot;1&quot; style=&quot;border-style:solid;&quot;&gt;&lt;p style=&quot;margin:0px;margin-left:4px;&quot;&gt;+ public DataContext(DbContextOptions&amp;lt;DataContext&amp;gt; options) : base(options) { }&lt;/p&gt;&lt;p style=&quot;margin:0px;margin-left:4px;&quot;&gt;+ protected override void OnModelCreating(ModelBuilder builder)&lt;/p&gt;" style="verticalAlign=top;align=left;overflow=fill;html=1;whiteSpace=wrap;" vertex="1" parent="Ks0WujP10DtmYbI-6dyg-172">
          <mxGeometry x="10" y="30" width="360" height="190" as="geometry" />
        </mxCell>
        <mxCell id="Ks0WujP10DtmYbI-6dyg-175" value="&lt;p style=&quot;margin:0px;margin-top:4px;text-align:center;&quot;&gt;&lt;i&gt;CategoryRepository : ICategoryRepository&lt;/i&gt;&lt;br&gt;&lt;/p&gt;&lt;hr size=&quot;1&quot; style=&quot;border-style:solid;&quot;&gt;&lt;p style=&quot;margin:0px;margin-left:4px;&quot;&gt;&lt;/p&gt;&lt;p style=&quot;margin:0px;margin-left:4px;&quot;&gt;&lt;span style=&quot;background-color: initial;&quot;&gt;+&amp;nbsp;&lt;/span&gt;&lt;span style=&quot;background-color: initial;&quot;&gt;readonly DataContext _dbcontext;&lt;/span&gt;&lt;/p&gt;&lt;p style=&quot;margin:0px;margin-left:4px;&quot;&gt;+&amp;nbsp;&lt;span style=&quot;background-color: initial;&quot;&gt;public CategoryRepository(DataContext dbcontext)&lt;/span&gt;&lt;/p&gt;" style="verticalAlign=top;align=left;overflow=fill;html=1;whiteSpace=wrap;" vertex="1" parent="Ks0WujP10DtmYbI-6dyg-172">
          <mxGeometry x="10" y="230" width="300" height="70" as="geometry" />
        </mxCell>
        <mxCell id="Ks0WujP10DtmYbI-6dyg-176" value="&lt;p style=&quot;margin:0px;margin-top:4px;text-align:center;&quot;&gt;&lt;i&gt;OrderRepository : IOrderRepository&lt;/i&gt;&lt;br&gt;&lt;/p&gt;&lt;hr size=&quot;1&quot; style=&quot;border-style:solid;&quot;&gt;&lt;p style=&quot;margin:0px;margin-left:4px;&quot;&gt;&lt;span style=&quot;background-color: initial;&quot;&gt;+&amp;nbsp;&lt;/span&gt;&lt;span style=&quot;background-color: initial;&quot;&gt;readonly DataContext _dbcontext;&lt;/span&gt;&lt;/p&gt;&lt;p style=&quot;margin:0px;margin-left:4px;&quot;&gt;&lt;span style=&quot;background-color: initial;&quot;&gt;+&amp;nbsp;&lt;/span&gt;&lt;span style=&quot;background-color: initial;&quot;&gt;public CategoryRepository(DataContext dbcontext)&lt;/span&gt;&lt;/p&gt;&lt;p style=&quot;margin:0px;margin-left:4px;&quot;&gt;&lt;span style=&quot;background-color: initial;&quot;&gt;&lt;br&gt;&lt;/span&gt;&lt;/p&gt;" style="verticalAlign=top;align=left;overflow=fill;html=1;whiteSpace=wrap;" vertex="1" parent="Ks0WujP10DtmYbI-6dyg-172">
          <mxGeometry x="10" y="310" width="300" height="70" as="geometry" />
        </mxCell>
        <mxCell id="Ks0WujP10DtmYbI-6dyg-177" value="&lt;p style=&quot;margin:0px;margin-top:4px;text-align:center;&quot;&gt;&lt;i&gt;ProductRepository : IProductRepository&lt;/i&gt;&lt;br&gt;&lt;/p&gt;&lt;hr size=&quot;1&quot; style=&quot;border-style:solid;&quot;&gt;&lt;p style=&quot;margin:0px;margin-left:4px;&quot;&gt;&lt;span style=&quot;background-color: initial;&quot;&gt;+&amp;nbsp;&lt;/span&gt;&lt;span style=&quot;background-color: initial;&quot;&gt;readonly DataContext _dbcontext;&lt;/span&gt;&lt;/p&gt;&lt;p style=&quot;margin:0px;margin-left:4px;&quot;&gt;&lt;span style=&quot;background-color: initial;&quot;&gt;+&amp;nbsp;&lt;/span&gt;&lt;span style=&quot;background-color: initial;&quot;&gt;public ProductRepository(DataContext dbcontext)&lt;/span&gt;&lt;/p&gt;&lt;p style=&quot;margin:0px;margin-left:4px;&quot;&gt;&lt;span style=&quot;background-color: initial;&quot;&gt;&lt;br&gt;&lt;/span&gt;&lt;/p&gt;" style="verticalAlign=top;align=left;overflow=fill;html=1;whiteSpace=wrap;" vertex="1" parent="Ks0WujP10DtmYbI-6dyg-172">
          <mxGeometry x="10" y="390" width="300" height="70" as="geometry" />
        </mxCell>
        <mxCell id="Ks0WujP10DtmYbI-6dyg-178" value="&lt;p style=&quot;margin:0px;margin-top:4px;text-align:center;&quot;&gt;&lt;i&gt;SupplierRepository : ISupplierRepositoty&lt;/i&gt;&lt;br&gt;&lt;/p&gt;&lt;hr size=&quot;1&quot; style=&quot;border-style:solid;&quot;&gt;&lt;p style=&quot;margin:0px;margin-left:4px;&quot;&gt;&lt;span style=&quot;background-color: initial;&quot;&gt;+&amp;nbsp;&lt;/span&gt;&lt;span style=&quot;background-color: initial;&quot;&gt;readonly DataContext _dbcontext;&lt;/span&gt;&lt;/p&gt;&lt;p style=&quot;margin:0px;margin-left:4px;&quot;&gt;&lt;span style=&quot;background-color: initial;&quot;&gt;+&amp;nbsp;&lt;/span&gt;&lt;span style=&quot;background-color: initial;&quot;&gt;public SupplierRepository(DataContext dbcontext)&lt;/span&gt;&lt;/p&gt;&lt;p style=&quot;margin:0px;margin-left:4px;&quot;&gt;&lt;span style=&quot;background-color: initial;&quot;&gt;&lt;br&gt;&lt;/span&gt;&lt;/p&gt;" style="verticalAlign=top;align=left;overflow=fill;html=1;whiteSpace=wrap;" vertex="1" parent="Ks0WujP10DtmYbI-6dyg-172">
          <mxGeometry x="10" y="470" width="300" height="70" as="geometry" />
        </mxCell>
        <mxCell id="Ks0WujP10DtmYbI-6dyg-179" value="&lt;p style=&quot;margin:0px;margin-top:4px;text-align:center;&quot;&gt;&lt;i&gt;UserRepository : IUserRepository&lt;/i&gt;&lt;br&gt;&lt;/p&gt;&lt;hr size=&quot;1&quot; style=&quot;border-style:solid;&quot;&gt;&lt;p style=&quot;margin:0px;margin-left:4px;&quot;&gt;&lt;span style=&quot;background-color: initial;&quot;&gt;+&amp;nbsp;&lt;/span&gt;&lt;span style=&quot;background-color: initial;&quot;&gt;readonly DataContext _dbcontext;&lt;/span&gt;&lt;/p&gt;&lt;p style=&quot;margin:0px;margin-left:4px;&quot;&gt;&lt;span style=&quot;background-color: initial;&quot;&gt;+&amp;nbsp;&lt;/span&gt;&lt;span style=&quot;background-color: initial;&quot;&gt;public UserRepository(DataContext dbcontext)&lt;/span&gt;&lt;/p&gt;&lt;p style=&quot;margin:0px;margin-left:4px;&quot;&gt;&lt;span style=&quot;background-color: initial;&quot;&gt;&lt;br&gt;&lt;/span&gt;&lt;/p&gt;" style="verticalAlign=top;align=left;overflow=fill;html=1;whiteSpace=wrap;" vertex="1" parent="Ks0WujP10DtmYbI-6dyg-172">
          <mxGeometry x="10" y="550" width="300" height="70" as="geometry" />
        </mxCell>
        <mxCell id="Ks0WujP10DtmYbI-6dyg-180" value="&lt;p style=&quot;margin:0px;margin-top:4px;text-align:center;&quot;&gt;&lt;i&gt;CategoryConfiguration : IEntityTypeConfiguration&amp;lt;Category&amp;gt;&lt;/i&gt;&lt;/p&gt;" style="verticalAlign=top;align=left;overflow=fill;html=1;whiteSpace=wrap;" vertex="1" parent="Ks0WujP10DtmYbI-6dyg-172">
          <mxGeometry x="380" y="30" width="360" height="30" as="geometry" />
        </mxCell>
        <mxCell id="Ks0WujP10DtmYbI-6dyg-199" value="&lt;p style=&quot;margin:0px;margin-top:4px;text-align:center;&quot;&gt;&lt;i&gt;OrderConfigurarion : IEntityTypeConfiguration&amp;lt;Order&amp;gt;&lt;/i&gt;&lt;br&gt;&lt;/p&gt;" style="verticalAlign=top;align=left;overflow=fill;html=1;whiteSpace=wrap;" vertex="1" parent="Ks0WujP10DtmYbI-6dyg-172">
          <mxGeometry x="380" y="110" width="360" height="30" as="geometry" />
        </mxCell>
        <mxCell id="Ks0WujP10DtmYbI-6dyg-198" value="&lt;p style=&quot;margin:0px;margin-top:4px;text-align:center;&quot;&gt;&lt;i&gt;ProductConfiguration : IEntityTypeConfiguration&amp;lt;Product&amp;gt;&lt;/i&gt;&lt;br&gt;&lt;/p&gt;" style="verticalAlign=top;align=left;overflow=fill;html=1;whiteSpace=wrap;" vertex="1" parent="Ks0WujP10DtmYbI-6dyg-172">
          <mxGeometry x="380" y="150" width="360" height="30" as="geometry" />
        </mxCell>
        <mxCell id="Ks0WujP10DtmYbI-6dyg-197" value="&lt;p style=&quot;margin:0px;margin-top:4px;text-align:center;&quot;&gt;&lt;i&gt;SupplierConfiguration : IEntityTypeConfiguration&amp;lt;Supplier&amp;gt;&lt;/i&gt;&lt;br&gt;&lt;/p&gt;" style="verticalAlign=top;align=left;overflow=fill;html=1;whiteSpace=wrap;" vertex="1" parent="Ks0WujP10DtmYbI-6dyg-172">
          <mxGeometry x="380" y="190" width="360" height="30" as="geometry" />
        </mxCell>
        <mxCell id="Ks0WujP10DtmYbI-6dyg-201" value="&lt;p style=&quot;margin:0px;margin-top:4px;text-align:center;&quot;&gt;&lt;i&gt;UserConfiguration : IEntityTypeConfiguration&amp;lt;User&amp;gt;&lt;/i&gt;&lt;br&gt;&lt;/p&gt;" style="verticalAlign=top;align=left;overflow=fill;html=1;whiteSpace=wrap;" vertex="1" parent="Ks0WujP10DtmYbI-6dyg-172">
          <mxGeometry x="380" y="230" width="360" height="30" as="geometry" />
        </mxCell>
        <mxCell id="Ks0WujP10DtmYbI-6dyg-200" value="&lt;p style=&quot;margin:0px;margin-top:4px;text-align:center;&quot;&gt;&lt;i&gt;ItemOrderConfiguration : IEntityTypeConfiguration&amp;lt;ItemOrder&amp;gt;&lt;/i&gt;&lt;/p&gt;&lt;p style=&quot;margin:0px;margin-top:4px;text-align:center;&quot;&gt;&lt;i&gt;&amp;nbsp; &amp;nbsp; {&lt;/i&gt;&lt;/p&gt;" style="verticalAlign=top;align=left;overflow=fill;html=1;whiteSpace=wrap;" vertex="1" parent="WIyWlLk6GJQsqaUBKTNV-1">
          <mxGeometry x="1640" y="80" width="360" height="30" as="geometry" />
        </mxCell>
        <mxCell id="Ks0WujP10DtmYbI-6dyg-202" value="Api" style="swimlane;whiteSpace=wrap;html=1;" vertex="1" parent="WIyWlLk6GJQsqaUBKTNV-1">
          <mxGeometry x="1160" y="700" width="1010" height="220" as="geometry" />
        </mxCell>
        <mxCell id="Ks0WujP10DtmYbI-6dyg-203" value="&lt;p style=&quot;margin:0px;margin-top:4px;text-align:center;&quot;&gt;&lt;i&gt;Program&lt;/i&gt;&lt;/p&gt;&lt;p style=&quot;margin:0px;margin-left:4px;&quot;&gt;&lt;br&gt;&lt;/p&gt;" style="verticalAlign=top;align=left;overflow=fill;html=1;whiteSpace=wrap;" vertex="1" parent="Ks0WujP10DtmYbI-6dyg-202">
          <mxGeometry x="20" y="40" width="190" height="30" as="geometry" />
        </mxCell>
        <mxCell id="Ks0WujP10DtmYbI-6dyg-207" value="&lt;p style=&quot;margin:0px;margin-top:4px;text-align:center;&quot;&gt;&lt;i&gt;ApplicationConfigureHelper&lt;/i&gt;&lt;br&gt;&lt;/p&gt;&lt;p style=&quot;margin:0px;margin-left:4px;&quot;&gt;&lt;br&gt;&lt;/p&gt;" style="verticalAlign=top;align=left;overflow=fill;html=1;whiteSpace=wrap;" vertex="1" parent="Ks0WujP10DtmYbI-6dyg-202">
          <mxGeometry x="20" y="95" width="190" height="25" as="geometry" />
        </mxCell>
        <mxCell id="Ks0WujP10DtmYbI-6dyg-212" value="&lt;p style=&quot;margin:0px;margin-top:4px;text-align:center;&quot;&gt;&lt;i&gt;DependenciesHelper&lt;/i&gt;&lt;br&gt;&lt;/p&gt;&lt;hr size=&quot;1&quot; style=&quot;border-style:solid;&quot;&gt;&lt;p style=&quot;margin:0px;margin-left:4px;&quot;&gt;+ InjectDepencies&lt;br&gt;+ AddServices&lt;/p&gt;&lt;p style=&quot;margin:0px;margin-left:4px;&quot;&gt;+&amp;nbsp;AddSwagger&lt;/p&gt;&lt;p style=&quot;margin:0px;margin-left:4px;&quot;&gt;&lt;br&gt;&lt;/p&gt;" style="verticalAlign=top;align=left;overflow=fill;html=1;whiteSpace=wrap;" vertex="1" parent="Ks0WujP10DtmYbI-6dyg-202">
          <mxGeometry x="220" y="40" width="190" height="80" as="geometry" />
        </mxCell>
        <mxCell id="Ks0WujP10DtmYbI-6dyg-214" value="&lt;p style=&quot;margin:0px;margin-top:4px;text-align:center;&quot;&gt;&lt;i&gt;CategoryController : ControllerBase&lt;/i&gt;&lt;br&gt;&lt;/p&gt;&lt;hr size=&quot;1&quot; style=&quot;border-style:solid;&quot;&gt;&lt;p style=&quot;margin:0px;margin-left:4px;&quot;&gt;+ &amp;nbsp;readonly ICategoryService _serv;&lt;br&gt;&lt;/p&gt;&lt;hr size=&quot;1&quot; style=&quot;border-style:solid;&quot;&gt;&lt;p style=&quot;margin:0px;margin-left:4px;&quot;&gt;+ public CategoryController(ICategoryService sup)&lt;br&gt;+&amp;nbsp;&lt;span style=&quot;background-color: initial;&quot;&gt;public async Task&amp;lt;IActionResult&amp;gt; Create(CategoryCreateRequest request, CancellationToken token)&lt;/span&gt;&lt;/p&gt;&lt;div&gt;&lt;span style=&quot;background-color: initial;&quot;&gt;&amp;nbsp;+&amp;nbsp;&lt;/span&gt;&lt;span style=&quot;background-color: initial;&quot;&gt;public async Task&amp;lt;IActionResult&amp;gt; Delete(Guid id, CancellationToken token)&lt;/span&gt;&lt;/div&gt;&lt;div&gt;&amp;nbsp;+&amp;nbsp;public async Task&amp;lt;IActionResult&amp;gt; Edit(CategoryUpdateRequest request, CancellationToken token)&amp;nbsp;&lt;/div&gt;&lt;div&gt;&amp;nbsp;+&amp;nbsp;public async Task&amp;lt;IActionResult&amp;gt; GetLIst(CancellationToken token)&lt;/div&gt;&lt;div&gt;&amp;nbsp;+&amp;nbsp;&amp;nbsp;public async Task&amp;lt;IActionResult&amp;gt; Detail(Guid Id, CancellationToken token)&lt;/div&gt;" style="verticalAlign=top;align=left;overflow=fill;html=1;whiteSpace=wrap;" vertex="1" parent="Ks0WujP10DtmYbI-6dyg-202">
          <mxGeometry x="420" y="32.5" width="560" height="150" as="geometry" />
        </mxCell>
        <mxCell id="Ks0WujP10DtmYbI-6dyg-219" value="&lt;p style=&quot;margin:0px;margin-top:4px;text-align:center;&quot;&gt;&lt;i&gt;ProductController : ControllerBase&lt;/i&gt;&lt;br&gt;&lt;/p&gt;" style="verticalAlign=top;align=left;overflow=fill;html=1;whiteSpace=wrap;" vertex="1" parent="Ks0WujP10DtmYbI-6dyg-202">
          <mxGeometry x="220" y="130" width="190" height="25" as="geometry" />
        </mxCell>
        <mxCell id="Ks0WujP10DtmYbI-6dyg-218" value="&lt;p style=&quot;margin:0px;margin-top:4px;text-align:center;&quot;&gt;&lt;i&gt;SupplierController : ControllerBase&lt;/i&gt;&lt;br&gt;&lt;/p&gt;" style="verticalAlign=top;align=left;overflow=fill;html=1;whiteSpace=wrap;" vertex="1" parent="Ks0WujP10DtmYbI-6dyg-202">
          <mxGeometry x="215" y="170" width="200" height="25" as="geometry" />
        </mxCell>
        <mxCell id="Ks0WujP10DtmYbI-6dyg-217" value="&lt;p style=&quot;margin:0px;margin-top:4px;text-align:center;&quot;&gt;&lt;i&gt;UserController : ControllerBase&lt;/i&gt;&lt;br&gt;&lt;/p&gt;" style="verticalAlign=top;align=left;overflow=fill;html=1;whiteSpace=wrap;" vertex="1" parent="Ks0WujP10DtmYbI-6dyg-202">
          <mxGeometry x="20" y="130" width="190" height="25" as="geometry" />
        </mxCell>
        <mxCell id="Ks0WujP10DtmYbI-6dyg-220" value="&lt;p style=&quot;margin:0px;margin-top:4px;text-align:center;&quot;&gt;&lt;i&gt;OrderController : ControllerBase&lt;/i&gt;&lt;br&gt;&lt;/p&gt;" style="verticalAlign=top;align=left;overflow=fill;html=1;whiteSpace=wrap;" vertex="1" parent="Ks0WujP10DtmYbI-6dyg-202">
          <mxGeometry x="10" y="170" width="200" height="25" as="geometry" />
        </mxCell>
      </root>
    </mxGraphModel>
  </diagram>
</mxfile>
